<svg width="104" height="38" viewBox="0 0 104 38" fill="none" xmlns="http://www.w3.org/2000/svg">
<path d="M97 37.5L103.5 0H8.5L0 33L97 37.5Z" fill="#FE7D0D"/>
<g filter="url(#filter0_d_112_759)">
<path d="M25.3891 20.24C25.3891 19.168 24.3411 18.528 22.2451 18.32C18.9971 17.984 17.0691 17.712 16.4611 17.504C14.3811 16.736 13.3411 15.144 13.3411 12.728C13.3411 10.616 14.5731 9.184 17.0371 8.432C18.4611 7.984 20.5571 7.76 23.3251 7.76C23.9651 7.76 24.8451 7.84 25.9651 8C27.1811 8.176 28.0371 8.36 28.5331 8.552C28.5331 9.208 28.3811 10.24 28.0771 11.648C27.7571 13.168 27.5731 14.192 27.5251 14.72C26.5331 14.112 25.5411 13.504 24.5491 12.896C23.5731 12.416 22.4771 12.176 21.2611 12.176C20.2371 12.176 19.5251 12.256 19.1251 12.416C18.4371 12.688 18.0931 13.248 18.0931 14.096C18.0931 14.816 18.9491 15.352 20.6611 15.704C23.1731 16.216 24.7651 16.624 25.4371 16.928C27.1491 17.76 28.0051 19.12 28.0051 21.008C28.0051 22.8 27.2051 24.224 25.6051 25.28C24.2291 26.208 22.5971 26.672 20.7091 26.672C19.8611 26.672 18.5651 26.544 16.8211 26.288C14.9331 26.016 13.6931 25.752 13.1011 25.496C13.1171 25.048 13.1811 24.136 13.2931 22.76C13.3891 21.64 13.4371 20.728 13.4371 20.024C14.0611 20.168 15.0211 20.464 16.3171 20.912C17.5171 21.328 18.4931 21.616 19.2451 21.776C20.4451 22.032 21.6851 22.128 22.9651 22.064C24.5811 22 25.3891 21.392 25.3891 20.24ZM39.5896 12.656L39.6376 26.096L33.1096 26.024L33.6136 17.048L33.6376 13.04L29.4136 12.848V8.552H43.9816L43.9336 12.824L40.9816 12.752L39.5896 12.656ZM55.4969 26.36C55.2569 25.224 54.8969 23.792 54.4169 22.064L47.9129 21.92L46.7849 26H42.6089C43.6489 22.768 45.2169 16.856 47.3129 8.264L55.5689 8.216L59.0249 26.312C58.0009 26.392 56.8249 26.408 55.4969 26.36ZM50.7449 10.808L49.3289 15.464L53.5769 15.56L52.8089 10.664L50.7449 10.808ZM74.2923 26.024C74.1963 25.24 74.1483 24.664 74.1483 24.296C74.1483 22.872 74.0203 21.864 73.7643 21.272C73.3643 20.312 72.5563 19.832 71.3403 19.832C71.3403 19.832 71.0283 19.864 70.4043 19.928C70.3243 21.048 70.2683 23.056 70.2363 25.952L68.9163 25.976C67.1883 26.008 64.3963 25.96 60.5403 25.832C60.6363 17.848 60.6123 12.088 60.4683 8.552L67.6683 8.504C67.8923 8.504 68.2923 8.504 68.8683 8.504C69.3643 8.488 69.7563 8.48 70.0443 8.48C72.2043 8.48 73.7643 8.744 74.7243 9.272C76.0843 10.024 76.7643 11.432 76.7643 13.496C76.7643 14.952 76.4763 15.944 75.9003 16.472C75.5163 16.824 74.6203 17.192 73.2123 17.576C74.6523 17.848 75.7483 18.984 76.5003 20.984C77.0603 22.504 77.3403 24.176 77.3403 26L74.2923 26.024ZM71.2203 10.616C71.1883 10.616 70.9803 10.632 70.5963 10.664C70.5163 13.096 70.5323 14.312 70.6443 14.312C71.6043 14.28 72.4043 14.128 73.0443 13.856C73.7803 13.536 74.1483 13.088 74.1483 12.512C74.1163 11.6 73.6763 11.016 72.8283 10.76C72.5243 10.664 71.9883 10.616 71.2203 10.616ZM88.7849 12.656L88.8329 26.096L82.3049 26.024L82.8089 17.048L82.8329 13.04L78.6089 12.848V8.552H93.1769L93.1289 12.824L90.1769 12.752L88.7849 12.656Z" fill="white"/>
</g>
<defs>
<filter id="filter0_d_112_759" x="9.10107" y="7.75999" width="88.0759" height="26.912" filterUnits="userSpaceOnUse" color-interpolation-filters="sRGB">
<feFlood flood-opacity="0" result="BackgroundImageFix"/>
<feColorMatrix in="SourceAlpha" type="matrix" values="0 0 0 0 0 0 0 0 0 0 0 0 0 0 0 0 0 0 127 0" result="hardAlpha"/>
<feOffset dy="4"/>
<feGaussianBlur stdDeviation="2"/>
<feComposite in2="hardAlpha" operator="out"/>
<feColorMatrix type="matrix" values="0 0 0 0 0 0 0 0 0 0 0 0 0 0 0 0 0 0 0.25 0"/>
<feBlend mode="normal" in2="BackgroundImageFix" result="effect1_dropShadow_112_759"/>
<feBlend mode="normal" in="SourceGraphic" in2="effect1_dropShadow_112_759" result="shape"/>
</filter>
</defs>
</svg>
