<svg width="51" height="40" viewBox="0 0 51 40" fill="none" xmlns="http://www.w3.org/2000/svg">
<path fill-rule="evenodd" clip-rule="evenodd" d="M11.5948 10.7117C14.1483 9.88895 19.8447 8.86054 21.0232 13.4884C22.0555 17.5423 24.721 18.3402 25.8454 18.6767C25.9134 18.6971 25.9759 18.7157 26.0319 18.7334L25.4427 21.5101L26.0319 22.7442L24.8534 23.3613V25.2124L23.6749 23.9783L19.2553 26.7551L23.3803 27.3721L23.9695 25.8295L24.5588 27.3721H26.032L25.4427 32L13.9319 28.7C0.365374 26.1333 1.80109 14.6279 11.5948 10.7117ZM19.6073 14.4184L19.9026 15.8144L18.081 16.1997C19.0665 16.5746 20.5871 17.9605 19.0634 18.9828C17.1587 20.2607 12.8851 21.0612 14.9583 16.86C13.6652 16.7446 10.9609 15.9552 10.4886 13.7216C11.4857 14.5803 14.7055 15.9217 19.6073 14.4184Z" fill="white"/>
<path d="M32.8231 29.5962C38.5515 20.6972 33.0621 14.5233 30.8669 11.7518L33.0841 9.99566C40.7782 17.4321 39.5679 27.8621 35.1336 31.3744L32.8231 29.5962Z" fill="white"/>
<path d="M40.1694 33.253C48.3791 21.3342 40.5914 11.0106 37.4663 6.9327L39.6536 4.21432C50.6191 15.1463 48.8325 30.543 42.4712 35.7493L40.1694 33.253Z" fill="white"/>
</svg>
