<svg width="56" height="32" viewBox="0 0 56 32" fill="none" xmlns="http://www.w3.org/2000/svg">
<path d="M38.5028 18.2001L38.494 14.4283L26.5392 10.6285L22.8069 10.997L17.5699 6.45859L10.8476 5.3113L6.74726 7.94188L7.37654 12.0663L11.1726 15.4913L20.9534 16.6502L26.93 18.1729L38.5028 18.2001Z" fill="white"/>
<path d="M38.98 19.3861V13.0696L41.0855 13.4907V18.965L38.98 19.3861Z" fill="white"/>
<path fill-rule="evenodd" clip-rule="evenodd" d="M43.324 11.423C44.3873 10.4079 50.4862 8.86087 52.3618 12.6304C54.7063 17.3424 52.558 20.3246 50.0209 22.1372C49.9202 22.2091 49.8156 22.2831 49.7071 22.3579C49.5066 21.9499 49.5769 21.4389 49.6321 21.0369C49.6998 20.5451 49.7449 20.2167 49.2441 20.4404C48.3331 20.8474 46.5708 20.5722 45.8036 20.3837C45.6986 20.6583 45.936 21.1897 47.7257 21.1188C49.0322 21.0669 49.2202 21.9517 49.0793 22.7646C47.583 23.6616 45.5602 24.2968 43.325 22.1523C42.2565 21.1273 41.6815 19.4943 41.6088 17.247C41.6088 17.247 41.6331 14.7778 41.8501 14.0088C41.8606 13.9717 41.8709 13.9351 41.8811 13.8989C42.1294 13.0149 42.3026 12.3982 43.324 11.423Z" fill="white"/>
<path d="M43.2393 24L41.3427 23H32.2393L43.2393 24Z" fill="white"/>
<path d="M38.2393 21L35.4806 20H22.2393L38.2393 21Z" fill="white"/>
<path d="M45.2143 9.22362L43.1548 9.81959L34.2393 7.97937L45.2143 9.22362Z" fill="white"/>
<path d="M39.2142 10.2236L36.4377 10.6716L24.0806 8.12103L39.2142 10.2236Z" fill="white"/>
</svg>
