<svg width="32" height="32" viewBox="0 0 32 32" fill="none" xmlns="http://www.w3.org/2000/svg">
<path fill-rule="evenodd" clip-rule="evenodd" d="M9.50002 2.49995C4.83335 4.66662 -2.00007 10.6 1.99993 23L5.49998 28L4.99998 26C5.99998 28.6666 10.9 33.2999 22.5 30.5C26.6666 27.8333 34.2 20.2999 31 11.4999L29 6.99995L24.5 2.99995C22.8333 1.49995 16.5 -0.75001 9.50002 2.49995ZM8.00002 6.55772C8.02093 8.49002 8.23006 10.8794 8.62741 13.7259C10.5932 10.8794 12.8936 9.21723 15.5287 8.73935C16.3861 8.57313 17.1389 8.49002 17.7872 8.49002C19.7321 8.49002 20.8614 9.26917 21.1751 10.8275C21.217 10.9729 21.2379 11.1287 21.2379 11.295C21.2379 12.2923 20.5477 13.248 19.1675 14.1622C18.8538 14.37 17.9545 14.8375 16.4697 15.5647C14.1902 16.6659 13.0505 18.1931 13.0505 20.1461C13.0505 20.437 13.0819 20.9045 13.1446 21.5486C13.2073 22.1719 13.2282 22.6394 13.2073 22.9511C15.4659 22.8056 17.1076 22.8264 18.1323 23.0134L18.1637 21.2681C18.1637 21.0603 18.1532 20.7487 18.1323 20.3331C18.1114 19.9176 18.1009 19.6163 18.1009 19.4293C18.1009 18.4943 18.3728 17.8191 18.9165 17.4035C20.5268 16.1984 21.6875 15.1803 22.3985 14.3492C23.3187 13.248 23.8415 12.1053 23.967 10.921C24.1761 8.76012 23.3919 7.02521 21.6143 5.71624C20.004 4.53193 18.0487 3.96055 15.7482 4.0021C12.7368 4.04366 10.5409 4.47998 9.16069 5.31108C8.57513 5.66429 8.18824 6.07984 8.00002 6.55772ZM17.85 27.9065L18.0382 24.1042H12.8309L12.7682 26.13L12.7995 27.7195L15.3404 28L17.85 27.9065Z" fill="white"/>
</svg>
