<svg width="131" height="155" viewBox="0 0 131 155" fill="none" xmlns="http://www.w3.org/2000/svg">
<g filter="url(#filter0_d_133_1428)">
<path d="M84.6247 128.254L81.937 114.911L70.5891 108.388V98.9005L74.5039 108.388L86.7151 111.353L90 108.388L78.3535 105.423L71.4803 91.7845H59.0079L51.4468 107.202L42 111.353L45.2056 115.504L55.359 109.278L60.4357 98.0397V108.388L54.0945 116.69V129L59.7578 128.254L58.3453 118.766L65.811 112.836L77.1589 117.283L79.8466 128.254H84.6247ZM65.811 82C66.9198 82 67.9832 82.4373 68.7673 83.2158C69.5514 83.9943 69.9918 85.0501 69.9918 86.151C69.9918 87.2519 69.5514 88.3077 68.7673 89.0862C67.9832 89.8647 66.9198 90.302 65.811 90.302C63.4907 90.302 61.6302 88.4548 61.6302 86.151C61.6302 83.8472 63.5116 82 65.811 82Z" fill="white"/>
</g>
<defs>
<filter id="filter0_d_133_1428" x="38" y="82" width="56" height="55" filterUnits="userSpaceOnUse" color-interpolation-filters="sRGB">
<feFlood flood-opacity="0" result="BackgroundImageFix"/>
<feColorMatrix in="SourceAlpha" type="matrix" values="0 0 0 0 0 0 0 0 0 0 0 0 0 0 0 0 0 0 127 0" result="hardAlpha"/>
<feOffset dy="4"/>
<feGaussianBlur stdDeviation="2"/>
<feComposite in2="hardAlpha" operator="out"/>
<feColorMatrix type="matrix" values="0 0 0 0 0 0 0 0 0 0 0 0 0 0 0 0 0 0 0.25 0"/>
<feBlend mode="normal" in2="BackgroundImageFix" result="effect1_dropShadow_133_1428"/>
<feBlend mode="normal" in="SourceGraphic" in2="effect1_dropShadow_133_1428" result="shape"/>
</filter>
</defs>
</svg>
