<svg width="56" height="32" viewBox="0 0 56 32" fill="none" xmlns="http://www.w3.org/2000/svg">
<path d="M8.88723 18.0231L17.3854 11.1976L15.4219 6.24627L10.3296 5.68718L5.8927 9.30901L0.739257 19.5L1.73926 22.5L8.88723 25.1683L19.7392 25.1683L19.7391 20.9184L11.7487 18.0231L8.88723 18.0231Z" fill="white"/>
<path d="M20.2395 26.393V20.0765L22.345 20.4976V25.9719L20.2395 26.393Z" fill="white"/>
<path fill-rule="evenodd" clip-rule="evenodd" d="M24.5836 18.4299C25.6468 17.4148 31.7458 15.8678 33.6213 19.6373C35.9658 24.3493 33.8175 27.3315 31.2804 29.1441C31.1798 29.216 31.0751 29.29 30.9667 29.3648C30.7661 28.9568 30.8364 28.4458 30.8917 28.0438C30.9593 27.552 31.0044 27.2236 30.5036 27.4473C29.5926 27.8543 27.8304 27.5791 27.0631 27.3906C26.9581 27.6652 27.1955 28.1966 28.9852 28.1257C30.2917 28.0738 30.4797 28.9585 30.3388 29.7715C28.8425 30.6685 26.8197 31.3037 24.5845 29.1592C23.5161 28.1342 22.941 26.5012 22.8683 24.2539C22.8683 24.2539 22.8926 21.7847 23.1096 21.0157C23.1201 20.9786 23.1304 20.942 23.1406 20.9058C23.3889 20.0218 23.5621 19.4051 24.5836 18.4299Z" fill="white"/>
</svg>
