<svg width="104" height="98" viewBox="0 0 104 98" fill="none" xmlns="http://www.w3.org/2000/svg">
<g filter="url(#filter0_d_188_9)">
<path d="M43.4053 0L15.1262 10.199L4 44.5049L31.3519 63.5121L52.2136 89.4733L99.5 46.3592V17.6165L79.5655 3.24515L56.8495 12.517L43.4053 0Z" fill="white"/>
<path d="M87.9103 35.233C89.3938 26.332 85.1288 20.7071 82.8108 19.0073C83.8925 18.3892 86.6122 18.1728 88.8375 22.2524C91.0627 26.332 89.1466 32.606 87.9103 35.233Z" fill="white"/>
</g>
<path d="M49.5 33.5C44.3 38.3 37.9997 32.5 35.9997 29C43.5998 45.8 51.4997 38.3333 54.4996 32.5C54.4996 46.9 65.8329 46.8333 71.4996 45C65.1662 45 53.3 39.5 58.5 23.5C65 3.5 89.9996 18 91.9996 33.5C93.5996 45.9 66.3329 68.3333 52.4996 78C34.5 54.5 34 60 21 45C8 30 21.9997 15 35.9997 13C49.9997 11 56 27.5 49.5 33.5Z" fill="#CF5353"/>
<path d="M80.5 40.5C81.9835 31.599 82.5 27.5 77 23C78.5 23 80.5 23.25 83 27C86 31.5 84.5 37.5 80.5 40.5Z" fill="white"/>
<defs>
<filter id="filter0_d_188_9" x="0" y="0" width="103.5" height="97.4733" filterUnits="userSpaceOnUse" color-interpolation-filters="sRGB">
<feFlood flood-opacity="0" result="BackgroundImageFix"/>
<feColorMatrix in="SourceAlpha" type="matrix" values="0 0 0 0 0 0 0 0 0 0 0 0 0 0 0 0 0 0 127 0" result="hardAlpha"/>
<feOffset dy="4"/>
<feGaussianBlur stdDeviation="2"/>
<feComposite in2="hardAlpha" operator="out"/>
<feColorMatrix type="matrix" values="0 0 0 0 0 0 0 0 0 0 0 0 0 0 0 0 0 0 0.25 0"/>
<feBlend mode="normal" in2="BackgroundImageFix" result="effect1_dropShadow_188_9"/>
<feBlend mode="normal" in="SourceGraphic" in2="effect1_dropShadow_188_9" result="shape"/>
</filter>
</defs>
</svg>
