<svg width="104" height="98" viewBox="0 0 104 98" fill="none" xmlns="http://www.w3.org/2000/svg">
<g filter="url(#filter0_d_46_15)">
<path d="M43.4053 0.0267029L15.1262 10.2257L4 44.5316L31.3519 63.5388L52.2136 89.5L99.5 46.3859V17.6432L79.5655 3.27185L56.8495 12.5437L43.4053 0.0267029Z" fill="white"/>
<path d="M13.7355 43.1408C9.65585 33.1272 17.2896 20.4248 19.7621 14.8617L33.2063 9.76214L44.3325 7.44418C54.717 11.1529 56.3859 20.7338 55.9224 25.0607H56.8495L59.1675 19.9612C65.1015 10.3184 74.9296 9.14401 79.102 9.76214L95.7913 19.4976L93.9369 41.2864C93.566 50.5583 67.8212 71.4199 54.9952 80.6917C49.4321 70.6782 25.1707 51.4854 13.7355 43.1408Z" fill="#CF5353"/>
<path d="M40.9878 29.233V25.0607L38.2063 30.6238L48.8689 36.6505L55.3592 25.9879C56.4718 14.1199 47.7871 7.13512 43.3058 5.12622C29.9612 6.05341 24.0891 15.0162 17.4443 14.8617C13.7356 25.9879 7.70882 36.6505 10.8544 44.5316C31.8156 54.267 47.6327 73.8924 53.9684 82.0825C74.3665 67.2476 90.3827 50.8673 94.8641 44.5316C97.1821 36.6505 96.7734 24.5971 96.1553 18.5704C90.9631 17.8286 82.2476 11.1529 78.5388 7.90777C65.1874 9.0204 59.1675 16.5615 57.3131 19.9612L56.2864 25.9879L59.1675 31.551H63.8034L64.267 27.3786L62.8762 30.1602H60.0947L56.8495 25.9879L58.7039 20.4248C62.7835 12.2655 73.2848 10.9984 78.5388 10.6893C82.2476 14.0272 88.4288 17.9523 91.0558 19.4976C93.6519 28.0277 91.8285 39.7411 91.0558 43.6044C87.7179 53.618 65.2492 71.2654 53.9684 79.7646C48.4053 69.751 25.3802 50.8673 14.563 42.6772C11.9669 33.0345 17.5988 22.7427 19.2986 17.6432C25.9744 16.9015 30.8884 6.517 43.3058 9.76214C52.5776 10.5039 54.8956 20.8884 54.8956 25.9879L48.0413 33.8689L40.9878 29.233Z" fill="white" stroke="white"/>
<path d="M87.9103 35.2597C89.3938 26.3587 85.1288 20.7338 82.8108 19.034C83.8925 18.4159 86.6122 18.1995 88.8375 22.2791C91.0627 26.3587 89.1466 32.6327 87.9103 35.2597Z" fill="white"/>
</g>
<defs>
<filter id="filter0_d_46_15" x="0" y="0.0267029" width="103.5" height="97.4733" filterUnits="userSpaceOnUse" color-interpolation-filters="sRGB">
<feFlood flood-opacity="0" result="BackgroundImageFix"/>
<feColorMatrix in="SourceAlpha" type="matrix" values="0 0 0 0 0 0 0 0 0 0 0 0 0 0 0 0 0 0 127 0" result="hardAlpha"/>
<feOffset dy="4"/>
<feGaussianBlur stdDeviation="2"/>
<feComposite in2="hardAlpha" operator="out"/>
<feColorMatrix type="matrix" values="0 0 0 0 0 0 0 0 0 0 0 0 0 0 0 0 0 0 0.25 0"/>
<feBlend mode="normal" in2="BackgroundImageFix" result="effect1_dropShadow_46_15"/>
<feBlend mode="normal" in="SourceGraphic" in2="effect1_dropShadow_46_15" result="shape"/>
</filter>
</defs>
</svg>
